# xmcd CD database file
#
# Track frame offsets:
#	150
#	19898
#	38166
#	55764
#	76560
#	84854
#	97767
#	105181
#	119004
#	132873
#	155899
#	168882
#	182758
#	201038
#	216259
#	229704
#	239435
#	247270
#
# Disc length: 3532 seconds
#
# Revision: 0
# Processed by: cddbd v1.5.1PL0 Copyright (c) Steve Scherf et al.
# Submitted via: CDex 1.51
#
DISCID=e20dca12
DTITLE=Mississippi John Hurt - D.C. Blues The Library Of Congress Recordings Vol.1 [CD1]
DYEAR=2004
DGENRE=Blues
TTITLE0=Avalon Blues
TTITLE1=Richlands Women Blues
TTITLE2=Frankie And Albert
TTITLE3=Trouble I've Had All My Day
TTITLE4=Pear-Lee
TTITLE5=Candy Man
TTITLE6=Stockwell
TTITLE7=Got The Blues That Can't Be Satisfied
TTITLE8=Let The Mermaids Flirt With Me
TTITLE9=Talking Casey Jones
TTITLE10=Pay Day
TTITLE11=Louis Collins
TTITLE12=Stackolee
TTITLE13=Coffee Blues
TTITLE14=Slidin' Delta
TTITLE15=Corrina, Corrina
TTITLE16=Hey Baby Right Away
TTITLE17=Nobody's Business
EXTD=YEAR: 2004
EXTT0=
EXTT1=
EXTT2=
EXTT3=
EXTT4=
EXTT5=
EXTT6=
EXTT7=
EXTT8=
EXTT9=
EXTT10=
EXTT11=
EXTT12=
EXTT13=
EXTT14=
EXTT15=
EXTT16=
EXTT17=
PLAYORDER=
